<?xml version="1.0" standalone="no"?>
<!DOCTYPE svg PUBLIC "-//W3C//DTD SVG 20010904//EN"
 "http://www.w3.org/TR/2001/REC-SVG-20010904/DTD/svg10.dtd">
<svg version="1.0" xmlns="http://www.w3.org/2000/svg"
 width="851.000000pt" height="741.000000pt" viewBox="0 0 851.000000 741.000000"
 preserveAspectRatio="xMidYMid meet">

<g transform="translate(0.000000,741.000000) scale(0.100000,-0.100000)"
fill="#000000" stroke="none">
<path d="M6017 7339 c-446 -37 -854 -186 -1184 -433 -198 -147 -415 -386 -534
-587 l-43 -72 -15 24 c-57 87 -173 229 -257 313 -716 717 -1803 899 -2696 450
-426 -214 -759 -552 -974 -989 -168 -343 -238 -662 -237 -1080 2 -1155 466
-2131 1401 -2948 419 -367 782 -620 1822 -1273 334 -210 703 -453 884 -583 70
-51 134 -90 141 -87 8 3 60 43 117 89 216 175 488 374 1023 747 761 530 1038
735 1370 1017 797 675 1260 1341 1474 2118 116 422 158 959 106 1343 -32 231
-98 440 -210 667 -230 467 -604 838 -1080 1071 -360 176 -721 245 -1108 213z
m378 -249 c148 -23 212 -42 375 -113 323 -140 702 -474 749 -663 11 -43 10
-49 -9 -69 -18 -19 -29 -21 -88 -19 -83 3 -160 19 -482 100 -266 67 -467 114
-706 164 -338 71 -604 167 -645 233 -45 71 1 152 127 223 81 45 217 98 329
129 150 40 178 41 350 15z m-3952 -253 c37 -12 64 -31 108 -79 59 -63 120
-154 134 -199 16 -55 116 -246 145 -277 16 -18 30 -36 30 -39 0 -3 7 -11 14
-17 8 -6 16 -18 18 -26 2 -8 15 -27 30 -41 15 -15 25 -29 22 -32 -3 -2 9 -15
26 -27 18 -13 29 -28 26 -36 -3 -8 -1 -14 5 -14 5 0 15 -12 22 -27 6 -16 14
-30 18 -33 20 -17 97 -146 130 -216 49 -107 49 -126 0 -176 -22 -21 -40 -42
-40 -46 -1 -4 -5 -7 -10 -7 -5 0 -29 -17 -53 -38 -89 -78 -189 -120 -464 -192
-92 -24 -160 -49 -203 -73 -35 -21 -82 -47 -105 -60 -23 -13 -42 -27 -44 -32
-2 -6 -10 -10 -17 -10 -7 0 -27 -11 -43 -25 -16 -13 -32 -22 -36 -18 -3 3 -6
1 -6 -6 0 -8 -7 -11 -15 -7 -8 3 -15 1 -15 -5 0 -6 -4 -7 -10 -4 -5 3 -10 1
-10 -4 0 -6 -3 -10 -7 -10 -14 3 -73 -13 -73 -20 0 -3 -12 -7 -26 -8 -15 0
-30 -6 -33 -12 -4 -6 -27 -14 -52 -17 -24 -3 -57 -11 -74 -17 -19 -7 -85 -12
-175 -12 -139 1 -150 2 -265 39 -66 20 -179 67 -252 103 -72 35 -138 66 -145
67 -7 1 -25 10 -40 20 -15 10 -33 19 -41 20 -8 1 -21 8 -30 16 -9 8 -35 31
-58 50 -100 83 -132 122 -146 180 -17 72 -16 116 2 223 55 312 189 558 411
752 47 41 115 94 152 118 84 55 282 154 387 194 83 31 261 77 362 93 92 14
389 6 446 -13z"/>
</g>
</svg>
